<svg width="72" height="24" viewBox="0 0 72 24" fill="none" xmlns="http://www.w3.org/2000/svg">
<path d="M0 18.9342H2.09121C2.09121 21.4964 4.19775 22.2317 7.07087 22.2317C9.42923 22.2317 11.2517 21.2286 11.2517 18.9342C11.2517 17.2869 8.46043 16.7785 7.13685 16.522C2.88789 15.6989 1.01261 14.2328 1.01261 11.7176C1.01261 9.20243 2.82137 7.94855 7.07033 7.94855C11.8372 7.94855 13.8772 10.7636 13.8772 12.5692H12.135C12.135 11.763 10.3014 9.33495 7.07192 9.33495C4.66023 9.33495 2.90585 9.80535 2.90585 11.7588C2.90585 13.614 5.83492 14.1002 7.13791 14.3621C9.02799 14.7433 13.8852 15.3478 13.8852 18.9346C13.8852 22.7481 9.29776 23.6181 7.06981 23.6181C0.33789 23.6181 0.249721 20.3982 0 18.9342Z" fill="#FFFAF3"/>
<path d="M26.3522 20.6324C24.5223 18.7845 24.781 14.4949 24.781 14.4949L36.5252 14.498C35.0998 5.55976 22.4036 5.58247 21.9375 15.6965C21.7748 25.6717 33.3248 24.6839 36.5211 21.0775V18.4044C33.3887 23.1771 28.5975 22.902 26.3522 20.6324ZM29.0406 9.33412C33.214 9.33412 33.5282 13.6897 33.5282 13.6897H24.8084C24.8084 13.6897 24.8666 9.33412 29.0406 9.33412Z" fill="#FFFAF3"/>
<path d="M48.1383 0V23.618H45.8004V0H48.1383Z" fill="#FFFAF3"/>
<path d="M61.827 20.6324C59.9971 18.7845 60.2558 14.4949 60.2558 14.4949L72 14.498C70.5746 5.55976 57.8784 5.58247 57.4122 15.6965C57.2496 25.6717 68.7996 24.6839 71.9958 21.0775V18.4044C68.8635 23.1771 64.0723 22.902 61.827 20.6324ZM64.5152 9.33412C68.686 9.33412 69.0028 13.6897 69.0028 13.6897H60.2832C60.2832 13.6897 60.3444 9.33412 64.5152 9.33412Z" fill="#FFFAF3"/>
<path d="M69.763 1.18276C66.5637 3.43395 63.0904 5.19519 63.0904 5.19519L62.5292 4.35575L68.9981 0.0371094L69.763 1.18276Z" fill="#FFFAF3"/>
</svg>
